<svg width="64" height="64" fill="none" xmlns="http://www.w3.org/2000/svg"><path d="M63.361 6.306a2.189 2.189 0 0 1 0 3.091l-4.567 4.57-8.757-8.755L54.604.64a2.19 2.19 0 0 1 3.096 0L63.36 6.3v.005ZM55.7 17.058 46.94 8.302l-29.83 29.832a2.19 2.19 0 0 0-.53.858l-3.525 10.569a1.094 1.094 0 0 0 1.383 1.383l10.57-3.524a2.19 2.19 0 0 0 .858-.525L55.7 17.063v-.005Z" fill="#198754"/><path fill-rule="evenodd" clip-rule="evenodd" d="M0 57.357c0 1.762.689 3.452 1.914 4.697A6.483 6.483 0 0 0 6.536 64h47.928c1.734 0 3.396-.7 4.622-1.946A6.699 6.699 0 0 0 61 57.357V30.786c0-.588-.23-1.15-.638-1.566a2.16 2.16 0 0 0-1.54-.649 2.16 2.16 0 0 0-1.541.649 2.233 2.233 0 0 0-.638 1.566v26.571c0 .587-.23 1.15-.638 1.566a2.161 2.161 0 0 1-1.54.648H6.534a2.161 2.161 0 0 1-1.54-.648 2.233 2.233 0 0 1-.638-1.566V8.643c0-.587.23-1.15.638-1.566a2.16 2.16 0 0 1 1.54-.648h28.322a2.16 2.16 0 0 0 1.54-.649c.41-.415.639-.978.639-1.566 0-.587-.23-1.15-.638-1.565A2.16 2.16 0 0 0 34.858 2H6.535c-1.734 0-3.396.7-4.622 1.946A6.698 6.698 0 0 0 0 8.643v48.714Z" fill="#0D6EFD"/></svg>