<svg width="531" height="78" fill="none" xmlns="http://www.w3.org/2000/svg"><path d="M127.104 17.2V62h-12.672V44.528h-17.28V62H84.48V17.2h12.672v16.832h17.28V17.2h12.672Zm25.771 45.376c-3.712 0-7.062-.768-10.048-2.304-2.987-1.536-5.334-3.67-7.041-6.4-1.663-2.73-2.495-5.824-2.495-9.28 0-3.413.832-6.485 2.495-9.216 1.707-2.73 4.033-4.843 6.977-6.336 2.986-1.536 6.357-2.304 10.112-2.304 3.754 0 7.125.768 10.112 2.304 2.986 1.493 5.312 3.605 6.976 6.336 1.664 2.688 2.496 5.76 2.496 9.216 0 3.456-.832 6.55-2.496 9.28-1.664 2.73-3.99 4.864-6.976 6.4-2.987 1.536-6.358 2.304-10.112 2.304Zm0-9.664c2.133 0 3.882-.725 5.248-2.176 1.365-1.493 2.048-3.541 2.048-6.144 0-2.56-.683-4.565-2.048-6.016-1.366-1.45-3.115-2.176-5.248-2.176-2.134 0-3.883.725-5.248 2.176-1.366 1.45-2.048 3.456-2.048 6.016 0 2.603.682 4.65 2.048 6.144 1.365 1.45 3.114 2.176 5.248 2.176Zm70.401-26.176c4.266 0 7.658 1.28 10.176 3.84 2.56 2.56 3.84 6.421 3.84 11.584V62h-12.16V44.144c0-2.432-.47-4.224-1.408-5.376-.896-1.152-2.176-1.728-3.84-1.728-1.835 0-3.307.64-4.416 1.92-1.11 1.28-1.664 3.221-1.664 5.824V62h-12.16V44.144c0-4.736-1.75-7.104-5.248-7.104-1.878 0-3.371.64-4.48 1.92-1.11 1.28-1.664 3.221-1.664 5.824V62h-12.16V27.312h11.584v3.648a11.923 11.923 0 0 1 4.544-3.136c1.792-.725 3.733-1.088 5.824-1.088 2.432 0 4.608.448 6.528 1.344 1.92.896 3.477 2.261 4.672 4.096 1.365-1.75 3.093-3.093 5.184-4.032 2.09-.939 4.373-1.408 6.848-1.408Zm57.647 17.984c0 .085-.064 1.088-.192 3.008h-25.216c.512 1.792 1.493 3.179 2.943 4.16 1.494.939 3.35 1.408 5.569 1.408 1.664 0 3.093-.235 4.288-.704 1.237-.47 2.474-1.237 3.712-2.304l6.4 6.656c-3.371 3.755-8.299 5.632-14.784 5.632-4.054 0-7.616-.768-10.688-2.304-3.072-1.536-5.462-3.67-7.169-6.4-1.663-2.73-2.495-5.824-2.495-9.28 0-3.413.81-6.464 2.432-9.152 1.664-2.73 3.946-4.864 6.848-6.4 2.901-1.536 6.165-2.304 9.792-2.304 3.456 0 6.592.725 9.408 2.176 2.816 1.408 5.034 3.477 6.656 6.208 1.664 2.688 2.496 5.888 2.496 9.6Zm-18.496-9.344c-1.878 0-3.456.533-4.736 1.6-1.238 1.067-2.027 2.517-2.368 4.352h14.208c-.342-1.835-1.152-3.285-2.432-4.352-1.238-1.067-2.795-1.6-4.672-1.6Z" fill="#0D6EFD"/><path d="M357.377 17.2 342.849 62h-13.568l-8.576-27.264L311.745 62h-13.568l-14.528-44.8h13.056l9.024 28.608 9.472-28.608h11.648l9.024 28.864 9.408-28.864h12.096Zm18.81 45.376c-3.712 0-7.061-.768-10.048-2.304-2.987-1.536-5.333-3.67-7.04-6.4-1.664-2.73-2.496-5.824-2.496-9.28 0-3.413.832-6.485 2.496-9.216 1.707-2.73 4.032-4.843 6.976-6.336 2.987-1.536 6.357-2.304 10.112-2.304s7.125.768 10.112 2.304c2.987 1.493 5.312 3.605 6.976 6.336 1.664 2.688 2.496 5.76 2.496 9.216 0 3.456-.832 6.55-2.496 9.28-1.664 2.73-3.989 4.864-6.976 6.4-2.987 1.536-6.357 2.304-10.112 2.304Zm0-9.664c2.133 0 3.883-.725 5.248-2.176 1.365-1.493 2.048-3.541 2.048-6.144 0-2.56-.683-4.565-2.048-6.016-1.365-1.45-3.115-2.176-5.248-2.176s-3.883.725-5.248 2.176c-1.365 1.45-2.048 3.456-2.048 6.016 0 2.603.683 4.65 2.048 6.144 1.365 1.45 3.115 2.176 5.248 2.176Zm36.801-21.44c1.237-1.579 2.837-2.752 4.8-3.52 2.005-.81 4.288-1.216 6.848-1.216V37.68c-1.109-.128-2.027-.192-2.752-.192-2.603 0-4.651.704-6.144 2.112-1.451 1.408-2.176 3.563-2.176 6.464V62h-12.16V27.312h11.584v4.16Zm32.41 18.368-3.584 3.648V62h-12.16V14.512h12.16v24.896l12.416-12.096h14.4l-14.4 14.848L469.846 62h-14.72l-9.728-12.16Zm28.131-35.328h12.16V62h-12.16V14.512Zm56.607 12.8L515.16 63.408c-1.75 4.267-3.883 7.253-6.4 8.96-2.518 1.75-5.59 2.624-9.216 2.624-1.835 0-3.691-.299-5.568-.896-1.835-.555-3.328-1.301-4.481-2.24l4.225-8.512a7.003 7.003 0 0 0 2.432 1.472 8.023 8.023 0 0 0 2.943.576c1.153 0 2.091-.235 2.817-.704.768-.47 1.408-1.216 1.92-2.24l-14.849-35.136h12.481l8.512 21.184 8.576-21.184h11.584ZM63.361 13.306a2.189 2.189 0 0 1 0 3.09l-4.567 4.572-8.757-8.756 4.567-4.571a2.19 2.19 0 0 1 3.096 0l5.661 5.66v.005ZM55.7 24.058l-8.758-8.756-29.83 29.832a2.19 2.19 0 0 0-.53.858l-3.525 10.569a1.094 1.094 0 0 0 1.383 1.383l10.57-3.524a2.19 2.19 0 0 0 .858-.525L55.7 24.063v-.005Z" fill="#198754"/><path fill-rule="evenodd" clip-rule="evenodd" d="M0 64.357c0 1.762.689 3.452 1.914 4.697A6.483 6.483 0 0 0 6.536 71h47.928c1.734 0 3.396-.7 4.622-1.946A6.699 6.699 0 0 0 61 64.357V37.786c0-.588-.23-1.15-.638-1.566a2.16 2.16 0 0 0-1.54-.649 2.16 2.16 0 0 0-1.541.649 2.233 2.233 0 0 0-.638 1.566v26.571c0 .587-.23 1.15-.638 1.566a2.161 2.161 0 0 1-1.54.648H6.534a2.161 2.161 0 0 1-1.54-.648 2.233 2.233 0 0 1-.638-1.566V15.643c0-.587.23-1.15.638-1.566a2.161 2.161 0 0 1 1.54-.648h28.322a2.16 2.16 0 0 0 1.54-.649c.41-.415.639-.978.639-1.566 0-.587-.23-1.15-.638-1.565A2.16 2.16 0 0 0 34.858 9H6.535c-1.734 0-3.396.7-4.622 1.946A6.699 6.699 0 0 0 0 15.643v48.714Z" fill="#0D6EFD"/></svg>